<svg id="Capa_1" enable-background="new 0 0 512 512" height="512" viewBox="0 0 512 512" width="512" xmlns="http://www.w3.org/2000/svg"><g><path d="m384.084 177.77c-1.243 1.47-1.643 3.493-.924 5.279.126.314.26.591.397.798 14.835 21.912 14.917 47.09 19.573 74.214v64.901c-4.883 28.454-73.161 128.412-145.07 155.372v1.216c0 8.963-3.626 17.08-9.498 22.952-5.719 5.719-13.568 9.307-22.253 9.491-18.229.385-33.151-14.91-33.151-33.143v-.516c-28.454-4.883-54.754-16.071-77.408-32.07l-.865.865c-6.336 6.336-14.639 9.509-22.952 9.509-8.087 0-16.174-3.01-22.444-9.02-13.161-12.618-12.895-33.987-.002-46.879l.369-.369c-15.999-22.654-27.187-48.954-32.07-77.408h-1.216c-8.963 0-17.08-3.626-22.952-9.498-5.719-5.719-9.308-13.568-9.491-22.253-.385-18.228 14.91-33.15 33.143-33.15h.516c4.883-28.454 16.071-54.754 32.07-77.408l-.865-.865c-6.336-6.336-9.509-14.639-9.509-22.952 0-8.087 3.01-16.174 9.02-22.443 12.619-13.162 33.988-12.896 46.88-.002l.368.368c22.654-15.999 48.954-27.187 77.408-32.07v-1.216c0-8.963 3.626-17.08 9.498-22.952 5.719-5.719 13.568-9.307 22.253-9.491 18.229-.385 33.151 14.91 33.151 33.143v.516c18.524 12.78 50.02 22.072 69.527 26.795 1.39.88 3.705 2.04 5.605 2.949 1.774.849 3.901.644 5.416-.61.453-.375.915-.736 1.383-1.083 3.87-2.865 5.274-7.934 3.422-12.378-.592-1.42-1.146-2.86-1.661-4.32-3.163-8.921-4.883-18.533-4.883-28.536 0-23.612 9.57-44.988 25.044-60.461 12.015-12.015 27.59-20.471 45.007-23.651 5.012-.915 10.844 1.281 16.12 1.281 15.709 2.303 34.02 6.897 49.493 22.37s25.044 36.85 25.044 60.461-9.57 44.988-25.044 60.461c-15.473 15.473-35.424 21.885-48.942 22.928-5.275 0-11.66 1.638-16.671.721-2.563-.469-5.085-1.053-7.561-1.747l-.062-.017c-4.604-1.27-9.415.825-11.77 4.98-.976 1.724-2.125 3.379-3.443 4.938z" fill="#baf39a"/><path d="m507.879 85.505c0 23.612-9.57 44.988-25.044 60.461-15.473 15.473-36.85 25.044-60.461 25.044-5.275 0-10.446-.474-15.453-1.401 17.42-3.173 32.997-11.631 45.009-23.643 15.473-15.473 25.044-36.85 25.044-60.461 0-23.612-9.57-44.988-25.044-60.461-12.012-12.012-27.588-20.47-45.009-23.643 5.007-.927 10.179-1.401 15.453-1.401 23.612 0 44.988 9.57 60.461 25.044 15.474 15.473 25.044 36.849 25.044 60.461z" fill="#9ae59c"/><path d="m437.6 267.559c-5.872-5.872-13.99-9.498-22.952-9.498h-1.216c.007.038.009.076.015.114-6.782-39.669-25.815-75.164-53.08-102.422-34.48-34.491-82.136-55.826-134.758-55.826-5.202 0-10.353.206-15.453.618 46.461 3.729 88.235 24.127 119.305 55.207 34.49 34.48 55.825 82.136 55.825 134.758s-21.335 100.278-55.825 134.758c-31.07 31.081-72.844 51.478-119.305 55.207 5.099.412 10.25.618 15.453.618 40.984 0 78.954-12.945 110.034-34.964-.059.043-.117.092-.176.134l.371.371c12.888 12.888 34.254 13.155 46.873 0 6.016-6.274 9.024-14.361 9.024-22.448 0-8.314-3.173-16.617-9.509-22.952l-.865-.865c-.048.068-.099.13-.148.197 16.105-22.726 27.347-49.139 32.233-77.719-.006.038-.009.077-.015.115h.515c18.234 0 33.532-14.917 33.141-33.151-.184-8.685-3.769-16.535-9.487-22.252z" fill="#9ae59c"/><path d="m225.61 450.189c-88.188 0-159.678-71.49-159.678-159.678 0-88.188 71.49-159.678 159.678-159.678 88.188 0 159.678 71.49 159.678 159.678 0 88.188-71.491 159.678-159.678 159.678z" fill="#ff8d95"/><path d="m279.176 372.347c-18.004-6.365-30.902-23.536-30.902-43.719 0-20.184 12.899-37.354 30.902-43.719 4.834-1.709 47.486 18.116 47.486 43.719.001 25.603-42.652 45.428-47.486 43.719z" fill="#ffc7ce"/><path d="m340.99 328.628c0 12.795-5.192 24.395-13.578 32.78-8.386 8.386-19.986 13.578-32.78 13.578-5.419 0-10.621-.927-15.453-2.648 6.593-2.318 12.496-6.099 17.328-10.93 8.386-8.386 13.578-19.986 13.578-32.78 0-12.795-5.192-24.395-13.578-32.78-4.832-4.832-10.734-8.612-17.328-10.93 4.832-1.72 10.034-2.648 15.453-2.648 12.795 0 24.395 5.192 32.78 13.578 8.386 8.385 13.578 19.985 13.578 32.78z" fill="#ffb3c0"/><path d="m175.64 241.336c-4.739-4.244-7.721-10.41-7.721-17.272 0-6.862 2.982-13.028 7.721-17.272 4.101-3.673 30.904 4.471 30.904 17.272.001 12.802-24.566 18.727-30.904 17.272z" fill="#ffc7ce"/><path d="m164.828 398.681c-6.255-4.699-10.301-12.179-10.301-20.605 0-8.426 4.046-15.906 10.301-20.605 0 0 30.906 6.381 30.906 20.605 0 14.224-26.601 23.839-30.906 20.605z" fill="#ffc7ce"/><path d="m206.036 378.076c0 7.108-2.885 13.557-7.541 18.214-4.656 4.656-11.105 7.541-18.214 7.541-5.79 0-11.147-1.916-15.453-5.151.979-.731 1.896-1.525 2.761-2.39 4.656-4.656 7.541-11.105 7.541-18.214 0-7.108-2.884-13.557-7.541-18.214-.865-.865-1.782-1.659-2.761-2.39 4.306-3.235 9.663-5.151 15.453-5.151 7.108 0 13.557 2.884 18.214 7.541s7.541 11.106 7.541 18.214z" fill="#ffb3c0"/><path d="m214.278 224.064c0 6.408-2.596 12.197-6.789 16.39s-9.982 6.789-16.39 6.789c-5.944 0-11.353-2.236-15.453-5.913.319-.278.639-.577.937-.876 4.193-4.193 6.789-9.982 6.789-16.39s-2.596-12.197-6.789-16.39c-.299-.299-.618-.597-.937-.876 4.1-3.678 9.509-5.913 15.453-5.913 6.408 0 12.197 2.596 16.39 6.789s6.789 9.983 6.789 16.39z" fill="#ffb3c0"/><path d="m194.189 312.66c-5.681 0-10.302-4.622-10.302-10.302s4.621-10.302 10.302-10.302 10.302 4.622 10.302 10.302-4.621 10.302-10.302 10.302z" fill="#ffc7ce"/><path d="m286.905 230.245c-5.68 0-10.302-4.622-10.302-10.302s4.622-10.302 10.302-10.302 10.302 4.622 10.302 10.302-4.621 10.302-10.302 10.302z" fill="#ffc7ce"/><path d="m286.905 333.264c-5.68 0-10.302-4.622-10.302-10.302s4.622-10.302 10.302-10.302 10.302 4.622 10.302 10.302-4.621 10.302-10.302 10.302z" fill="#ff8d95"/><path d="m117.441 305.964c-8.534 0-15.453-6.918-15.453-15.453 0-8.534 6.918-15.453 15.453-15.453 8.534 0 15.453 6.918 15.453 15.453-.001 8.534-6.919 15.453-15.453 15.453z" fill="#ffc7ce"/><g fill="#9ae59c"><path d="m406.406 72.628c-8.534 0-15.453-6.918-15.453-15.453 0-8.534 6.918-15.453 15.453-15.453 8.534 0 15.453 6.918 15.453 15.453 0 8.534-6.918 15.453-15.453 15.453z"/><path d="m427.01 134.439c-8.534 0-15.453-6.918-15.453-15.453 0-8.534 6.918-15.453 15.453-15.453 8.534 0 15.453 6.918 15.453 15.453 0 8.534-6.919 15.453-15.453 15.453z"/></g></g></svg>